<?xml version="1.0" standalone="no"?>
<!DOCTYPE svg PUBLIC "-//W3C//DTD SVG 20010904//EN"
 "http://www.w3.org/TR/2001/REC-SVG-20010904/DTD/svg10.dtd">
<svg version="1.0" xmlns="http://www.w3.org/2000/svg"
 width="1024.000000pt" height="1024.000000pt" viewBox="0 0 1024.000000 1024.000000"
 preserveAspectRatio="xMidYMid meet">

<g transform="translate(0.000000,1024.000000) scale(0.100000,-0.100000)"
fill="currentColor" stroke="none">
<path d="M4099 9390 c-94 -16 -177 -75 -225 -162 l-29 -53 -3 -301 c-3 -286
-2 -303 18 -358 29 -75 100 -147 175 -175 172 -64 365 16 425 175 20 55 21 72
18 358 -3 272 -5 304 -22 336 -72 135 -210 205 -357 180z"/>
<path d="M8750 9164 c-25 -9 -63 -29 -85 -44 -22 -16 -1730 -1720 -3796 -3787
-3386 -3388 -3758 -3763 -3780 -3813 -35 -82 -34 -195 4 -271 32 -66 99 -132
165 -162 72 -33 188 -30 267 6 55 25 372 340 3831 3800 3095 3096 3775 3781
3795 3822 19 41 24 66 24 140 0 78 -4 97 -28 147 -32 65 -90 122 -156 151 -62
28 -180 33 -241 11z"/>
<path d="M1964 8511 c-49 -12 -134 -63 -160 -94 -14 -17 -37 -53 -52 -81 -24
-45 -27 -62 -27 -141 1 -135 22 -169 248 -393 223 -220 250 -237 382 -237 105
0 163 23 230 90 65 64 89 125 89 225 1 135 -17 166 -235 386 -213 214 -256
243 -372 249 -40 3 -86 1 -103 -4z"/>
<path d="M6194 8511 c-76 -20 -136 -67 -317 -250 -220 -222 -232 -243 -232
-376 0 -71 5 -100 21 -136 31 -67 87 -124 152 -156 50 -24 69 -28 147 -28 133
0 159 17 387 244 224 223 243 254 243 391 -1 77 -4 91 -34 148 -38 70 -70 101
-144 138 -54 28 -165 40 -223 25z"/>
<path d="M4020 7893 c-327 -32 -604 -127 -860 -296 -424 -280 -715 -729 -795
-1227 -79 -494 50 -1006 353 -1395 98 -126 161 -189 223 -222 48 -24 65 -28
144 -28 107 0 163 22 233 93 67 66 87 119 87 227 0 107 -19 151 -110 255 -125
141 -220 317 -265 486 -138 529 114 1088 602 1335 432 218 940 150 1308 -176
95 -84 155 -110 255 -110 95 0 165 28 229 90 62 62 91 134 91 230 0 140 -48
210 -250 367 -269 209 -589 334 -940 368 -104 9 -227 11 -305 3z"/>
<path d="M1053 6383 c-57 -20 -138 -94 -171 -157 -24 -45 -27 -62 -27 -146 0
-84 3 -101 27 -146 15 -28 50 -72 78 -97 82 -73 101 -77 426 -77 332 0 358 5
444 90 159 160 102 452 -105 529 -52 20 -75 21 -343 20 -228 0 -296 -4 -329
-16z"/>
<path d="M7004 5536 c-180 -91 -232 -242 -164 -477 38 -132 57 -236 71 -380
13 -141 13 -121 0 -264 -17 -186 -69 -411 -122 -530 -24 -54 -132 -249 -163
-295 -86 -128 -262 -313 -360 -380 -27 -18 -57 -41 -66 -50 -24 -24 -128 -86
-196 -117 -33 -14 -62 -30 -65 -35 -8 -13 -193 -77 -284 -98 -44 -11 -125 -26
-181 -34 -169 -26 -280 -101 -329 -223 -47 -119 -31 -238 54 -376 22 -37 41
-70 41 -73 0 -3 18 -26 40 -51 22 -25 53 -66 69 -90 36 -54 191 -216 287 -300
193 -168 511 -346 744 -416 235 -71 414 -97 668 -97 194 0 312 13 487 50 106
23 335 95 345 108 3 4 34 20 70 36 78 34 233 115 240 126 3 5 46 35 96 68 164
107 375 314 505 492 30 41 61 87 68 102 8 15 23 37 33 48 20 22 117 211 139
273 7 20 16 37 20 37 9 0 73 204 98 310 59 253 74 586 38 820 -31 200 -96 449
-132 505 -6 11 -38 76 -70 145 -31 69 -69 141 -84 160 -16 19 -35 49 -44 66
-9 17 -42 66 -75 110 -133 178 -331 368 -497 479 -49 33 -97 66 -105 74 -8 8
-76 44 -150 80 -74 36 -137 68 -140 72 -8 10 -182 67 -289 94 -152 39 -267 57
-401 62 l-125 5 -71 -36z m724 -843 c51 -25 110 -59 132 -77 21 -17 64 -49 96
-71 131 -92 301 -294 380 -452 27 -54 52 -100 56 -103 14 -11 78 -218 93 -305
25 -142 30 -331 11 -470 -21 -157 -82 -376 -111 -397 -7 -5 -7 -8 0 -8 6 0 5
-4 -2 -8 -6 -4 -30 -45 -52 -92 -68 -141 -235 -344 -365 -442 -39 -29 -78 -60
-87 -69 -23 -23 -130 -82 -209 -115 -36 -16 -67 -31 -70 -35 -10 -14 -208 -69
-305 -85 -135 -22 -362 -22 -479 0 -92 18 -254 68 -265 83 -3 4 -44 27 -91 50
-97 47 -131 69 -264 171 -88 67 -107 92 -71 92 7 0 15 3 17 8 2 4 61 34 133
67 71 33 143 70 160 81 16 12 75 50 129 85 55 34 107 69 115 78 9 9 51 45 94
80 146 118 315 300 412 441 112 162 126 185 172 280 25 52 50 98 57 102 6 4 7
8 1 8 -6 0 -6 3 0 8 22 15 103 254 141 412 20 82 20 82 27 100 28 70 47 442
28 542 -7 35 -15 71 -18 81 -7 25 13 19 135 -40z"/>
<path d="M2277 4590 c-81 -21 -125 -55 -313 -244 -227 -228 -239 -246 -239
-381 0 -71 5 -100 21 -136 31 -67 87 -124 152 -156 50 -24 69 -28 147 -28 133
0 159 17 387 244 222 221 242 253 243 386 0 67 -4 89 -28 136 -32 66 -100 132
-162 160 -52 23 -154 32 -208 19z"/>
</g>
</svg>
